<?xml version="1.0" encoding="utf-8"?>
<!-- Generator: Adobe Illustrator 23.1.0, SVG Export Plug-In . SVG Version: 6.00 Build 0)  -->
<svg version="1.1" id="Слой_1" xmlns="http://www.w3.org/2000/svg" xmlns:xlink="http://www.w3.org/1999/xlink" x="0px" y="0px"
	 viewBox="0 0 103.9 43.4" style="enable-background:new 0 0 103.9 43.4;" xml:space="preserve">
<style type="text/css">
	.st0{fill:#A5FFA1;stroke:#000000;stroke-linecap:round;stroke-linejoin:round;stroke-miterlimit:10;}
</style>
<path class="st0" d="M0.5,39c4.2,4.2,11.1,4.9,16.7,2.7c5.6-2.2,9.9-6.7,13.1-11.7c3.2-5,5.5-10.6,6.8-16.4
	c0.7-3.3,1.1-6.9-0.1-10.1c-0.4-1.1-1.1-2.2-2.2-2.7c-0.7-0.3-1.5-0.3-2.2-0.3c-3.4,0.3-6.6,2.2-8.4,5.1c-0.9,1.5-1.4,3.2-1.8,4.9
	c-0.5,2.6-0.6,5.3,0.2,7.8s2.4,4.8,4.7,6.1c0.8,0.4,1.6,0.7,2.5,0.7c2,0,3.7-1.7,4.7-3.5c2.2-3.8,2.7-8.4,3.9-12.7
	c0.4-1.5,1.2-3.2,2.6-3.8c1.6-0.6,3.4,0.3,4.3,1.6c1,1.4,1.2,3.1,1.3,4.8c0.3,5.2-0.6,10.6-3.1,15.2c-0.9,1.6-2.4,3.3-4.1,2.9
	c-0.6-0.1-1.1-0.5-1.6-0.8c-2.4-1.9-3.8-5.1-3.6-8.2"/>
<path class="st0" d="M74,6.6c-6.9-1.3-14.1,3.2-17.2,9.5c-3.1,6.3-2.6,14,0.1,20.5c0.6,1.4,1.3,2.8,2.6,3.5c0.7,0.4,1.6,0.5,2.4,0.6
	c2.8,0.4,5.8,0.7,8.1-0.8c1-0.6,1.7-1.5,2.4-2.4c1.1-1.5,2.1-3,3-4.7"/>
<path class="st0" d="M83.6,5.9c0.1,3.7,0.9,7.4,2.5,10.7c0.9,1.8,2.2,3.6,4.1,3.9c1,0.1,2-0.2,2.9-0.6c5.9-2.6,10-8.9,10.1-15.3
	c0.4,9.7-0.2,19.8-4.6,28.4c-0.7,1.4-1.5,2.7-2.8,3.6c-0.9,0.6-1.9,1-2.9,1.2c-3.3,0.7-6.9-0.2-9.6-2.3c-2.7-2.1-4.3-5.4-4.5-8.8"/>
</svg>
